<svg width="183" height="134" viewBox="0 0 183 134" fill="none" xmlns="http://www.w3.org/2000/svg">
<path d="M6.92778 126.14C0.928154 110.955 -1.17652 95.9426 0.62122 81.1571C4.31692 50.7619 21.762 25.1575 48.7071 10.5808C60.7712 4.05443 80.0242 -0.600732 92.2071 0.0629794L98.2072 0.38983L98.7071 56.7993L99.2071 113.209L114.257 93.7993C123.568 81.7908 130.066 74.2784 131.299 74.0975C132.875 73.8663 136.506 78.3189 148.659 95.3871C157.111 107.257 164.38 117.188 164.813 117.455C165.738 118.027 167.265 112.921 168.834 104.01C170.236 96.0522 169.437 79.3756 167.271 71.3898C163.811 58.632 154.437 42.484 146.072 34.8733C137.146 26.7524 125.027 19.4881 115.957 16.8224L111.707 15.5733V10.2315C111.707 7.2936 111.82 4.55233 111.957 4.13983C112.459 2.63307 118.884 3.90561 126.244 6.9697C152.618 17.949 172.612 41.1085 179.933 69.1582C181.638 75.6915 182.081 80.2783 182.077 91.3898C182.074 106.944 180.749 114.123 175.61 126.469L172.52 133.89H166.688H160.855L145.891 112.358L130.927 90.827L114.117 112.401L97.3075 133.975L91.2572 133.682L85.2069 133.39L84.9394 109.14L84.6714 84.8898H48.6892H12.707L12.7285 92.1398C12.7561 101.419 15.871 115.507 19.7077 123.705C24.1949 133.294 23.9985 133.89 16.3482 133.89H9.98976L6.92778 126.14ZM84.7071 43.3899C84.7071 15.0031 84.5858 12.8909 82.9571 12.9052C79.1115 12.9388 64.861 17.122 58.2352 20.1621C39.0271 28.9753 23.3116 46.6597 16.7854 66.805C15.6423 70.3333 14.7071 73.3708 14.7071 73.555C14.7071 73.7392 30.4572 73.8898 49.7072 73.8898H84.7071V43.3899Z" fill="white"/>
</svg>
